<?xml version="1.0" standalone="no"?>

<!DOCTYPE svg PUBLIC "-//W3C//DTD SVG 20010904//EN"

 "http://www.w3.org/TR/2001/REC-SVG-20010904/DTD/svg10.dtd">

<svg version="1.0" xmlns="http://www.w3.org/2000/svg"

 width="113.385827" height="146.834646" viewBox="0 0 113.385827 146.834646"

 preserveAspectRatio="xMidYMid meet">

<metadata>

Created by potrace 1.14, written by Peter Selinger 2001-2017

</metadata>

<g transform="translate(60.082978,20.809088) scale(0.0095,-0.0095)"
fill="#000000" stroke="none">

<path d="M0 2590 l0 -2590 2000 0 2000 0 0 2590 0 2590 -2000 0 -2000 0 0

-2590z m3990 0 l0 -2580 -1990 0 -1990 0 0 2580 0 2580 1990 0 1990 0 0 -2580z"/>

<path d="M2745 4982 c-132 -46 -247 -155 -320 -304 -75 -156 -89 -222 -89

-438 0 -215 14 -282 89 -436 121 -250 348 -374 556 -304 184 62 318 232 386

489 23 83 26 116 26 251 0 136 -3 167 -26 254 -50 186 -141 335 -258 421 -107

79 -253 106 -364 67z m231 -19 c281 -94 454 -490 389 -890 -41 -251 -171 -454

-345 -537 -59 -28 -74 -31 -160 -31 -88 0 -101 3 -163 33 -160 79 -284 264

-331 496 -22 104 -22 308 0 412 52 257 195 453 376 515 67 23 169 24 234 2z"/>

<path d="M845 4836 c-226 -53 -403 -196 -495 -399 -119 -265 -62 -576 145

-782 89 -89 159 -135 263 -171 187 -65 388 -49 567 44 107 56 239 191 292 302

54 112 73 193 73 317 0 312 -190 575 -485 669 -100 32 -267 41 -360 20z m360

-40 c288 -99 468 -352 466 -656 -2 -309 -209 -576 -511 -656 -43 -11 -102 -17

-175 -17 -97 0 -121 4 -202 31 -121 41 -206 96 -293 189 -128 137 -186 298

-178 490 8 185 73 330 205 460 83 82 212 153 323 178 103 23 266 15 365 -19z"/>

<path d="M2150 2703 l0 -538 755 3 755 2 0 535 0 535 -755 0 -755 0 0 -537z

m1490 2 l0 -515 -735 0 -735 0 0 515 0 515 735 0 735 0 0 -515z"/>

<path d="M1048 3138 c-13 -24 -169 -294 -347 -602 -177 -307 -325 -564 -328

-572 -4 -12 103 -14 707 -14 391 0 710 4 708 8 -11 30 -704 1222 -710 1222 -3

0 -17 -19 -30 -42z"/>

<path d="M2643 1726 c-88 -116 -226 -297 -306 -402 l-145 -191 299 -393 c164

-217 303 -398 307 -402 7 -7 554 701 602 778 12 19 -9 50 -270 395 -156 206

-293 386 -305 400 l-22 27 -160 -212z"/>

<path d="M510 1025 l0 -615 620 0 620 0 0 615 0 615 -620 0 -620 0 0 -615z

m1210 0 l0 -595 -590 0 -590 0 0 595 0 595 590 0 590 0 0 -595z"/>

<path d="M550 1025 l0 -585 580 0 580 0 0 585 0 585 -580 0 -580 0 0 -585z"/>

</g>

</svg>

