<?xml version="1.0" standalone="no"?>

<!DOCTYPE svg PUBLIC "-//W3C//DTD SVG 20010904//EN"

 "http://www.w3.org/TR/2001/REC-SVG-20010904/DTD/svg10.dtd">

<svg version="1.0" xmlns="http://www.w3.org/2000/svg"

 width="113.385827" height="136.447678" viewBox="0 0 113.385827 136.447678"

 preserveAspectRatio="xMidYMid meet">

<metadata>

Created by potrace 1.14, written by Peter Selinger 2001-2017

</metadata>

<g transform="translate(60.082978,20.809088) scale(0.0095,-0.0095)"
fill="#000000" stroke="none">

<path d="M1398 3500 c-32 -10 -89 -34 -129 -54 -39 -20 -105 -48 -147 -62 -43

-14 -84 -31 -92 -37 -17 -14 -52 -34 -92 -55 -16 -7 -28 -18 -28 -23 0 -5 -17

-9 -38 -9 -22 0 -53 -7 -70 -16 -33 -16 -44 -28 -17 -18 11 5 13 2 9 -10 -3

-9 -18 -16 -33 -16 -32 0 -77 -30 -76 -50 1 -17 -24 -39 -44 -40 -10 0 -7 9

10 27 l24 27 -32 -25 c-18 -14 -30 -32 -30 -44 2 -14 -4 -20 -18 -21 -33 -2

-65 -16 -59 -25 3 -5 -9 -9 -26 -9 -46 0 -69 -15 -63 -41 4 -15 2 -20 -5 -15

-7 4 -20 -6 -32 -26 -24 -39 -25 -58 -5 -58 11 0 15 -11 15 -36 0 -19 -4 -33

-8 -30 -4 2 -8 -3 -9 -12 0 -9 -6 -39 -12 -67 -18 -76 -25 -153 -12 -135 6 8

8 26 4 40 -3 16 -2 21 4 15 13 -14 33 -86 33 -122 0 -17 6 -36 14 -43 8 -6 16

-21 18 -33 2 -12 8 -21 15 -20 18 4 41 -30 47 -72 17 -118 21 -165 15 -165

-14 0 -32 -76 -32 -132 1 -76 22 -199 39 -223 16 -23 18 -45 4 -45 -5 0 -10 9

-10 19 0 11 -5 21 -11 23 -5 2 -12 15 -13 28 -5 35 -16 60 -28 60 -6 0 -7 -11

-4 -25 4 -14 2 -25 -4 -25 -17 0 -11 -18 9 -25 19 -6 36 -33 26 -43 -3 -3 -12

3 -19 14 -16 21 -20 19 -31 -14 -6 -20 -4 -22 20 -18 33 6 76 -19 68 -40 -3

-8 0 -14 6 -14 6 0 11 7 11 15 0 13 4 12 22 -5 12 -11 25 -20 29 -20 14 0 39

-32 33 -42 -3 -5 -17 -7 -29 -4 -15 4 -30 0 -39 -10 -9 -8 -16 -11 -16 -5 0 6

-8 11 -17 10 -11 0 -13 -3 -5 -6 24 -9 12 -19 -27 -20 -26 -1 -41 3 -45 13 -7

19 -42 18 -50 -1 -6 -17 -116 -22 -116 -5 0 6 11 10 25 10 21 0 25 5 25 31 0

24 -4 30 -17 27 -10 -2 -17 -11 -15 -20 3 -20 -26 -32 -43 -18 -9 8 -15 8 -20

0 -4 -7 -49 -9 -131 -6 -75 3 -124 1 -124 -4 0 -6 43 -10 99 -10 56 0 103 -4

106 -10 3 -5 -2 -11 -12 -12 -37 -3 -100 -6 -145 -7 -50 -1 -65 -17 -25 -26

12 -3 54 -8 92 -10 114 -7 150 -17 153 -43 2 -15 -2 -22 -13 -22 -12 0 -15 5

-11 16 5 13 3 14 -7 6 -19 -16 -83 -18 -101 -3 -14 12 -16 8 -16 -38 0 -29 4

-51 11 -51 6 0 8 -8 5 -17 -5 -16 1 -18 52 -15 40 3 62 -1 69 -10 9 -11 0 -12

-53 -10 -43 3 -64 0 -64 -8 0 -6 -5 -8 -12 -3 -21 12 -97 11 -116 -3 -14 -11

8 -13 135 -14 l152 0 -35 -57 c-35 -59 -64 -139 -64 -178 0 -26 86 -161 139

-220 20 -22 51 -61 69 -87 l32 -47 -58 -35 c-31 -20 -130 -72 -219 -116 l-163

-80 0 -295 0 -295 1460 0 1460 0 0 393 0 393 -32 17 -33 16 33 0 c24 1 32 5

32 20 0 15 -11 19 -71 25 -39 3 -75 4 -80 0 -5 -3 -35 0 -65 7 -50 11 -54 14

-33 22 13 5 47 8 74 8 28 -1 78 1 113 5 52 5 62 9 62 25 0 11 -5 19 -11 19 -8

0 -8 4 0 13 6 8 10 37 10 65 -1 46 -4 52 -23 53 -20 1 -20 1 -1 7 11 4 21 15

23 25 2 14 -6 17 -60 19 l-63 1 63 6 c61 6 77 16 50 32 -10 7 -10 9 0 9 22 0

13 38 -10 43 l-23 4 23 2 c12 0 22 6 22 12 0 6 -15 9 -37 7 -34 -2 -38 0 -35

19 2 17 -3 24 -22 29 -28 7 -50 -2 -41 -17 4 -5 -10 -9 -29 -9 -20 0 -36 5

-36 11 0 8 -16 9 -51 5 -32 -4 -56 -3 -64 4 -8 7 -16 7 -19 2 -3 -5 -35 -8

-71 -5 -48 3 -71 0 -87 -12 -13 -8 -29 -15 -38 -14 -8 0 -4 5 9 10 32 13 20

23 -18 14 -31 -7 -39 -19 -21 -30 16 -10 12 -23 -9 -30 -12 -3 -19 -14 -18

-25 1 -18 9 -20 67 -21 36 -1 54 -4 40 -6 -14 -3 -29 -9 -35 -14 -5 -5 -25 -9

-45 -9 l-37 0 -6 107 c-5 86 -10 112 -27 135 -11 15 -20 30 -20 33 0 3 129 5

288 5 158 0 304 3 325 6 l37 7 0 58 0 58 -30 -9 c-23 -7 -30 -5 -30 5 0 9 6

12 15 9 24 -10 45 21 45 65 0 38 -2 41 -27 42 l-28 1 28 10 27 10 0 267 0 268

-30 -5 c-17 -2 -33 -9 -36 -14 -3 -5 -17 1 -30 13 -23 21 -24 21 -24 3 0 -12

-3 -15 -8 -7 -4 6 -22 10 -40 9 -33 -2 -41 11 -20 32 9 9 9 12 1 12 -14 0 -27

-19 -28 -40 -1 -8 -2 -25 -3 -37 -3 -33 -22 -28 -23 5 -2 23 -2 24 -6 5 -4

-19 -8 -21 -24 -13 -10 6 -19 17 -19 25 0 17 -27 19 -64 5 -17 -6 -26 -6 -26

0 0 6 -8 10 -18 10 -11 0 -25 12 -32 28 -13 26 -14 26 -18 5 -3 -19 -10 -23

-38 -23 -26 0 -34 -4 -34 -18 0 -10 6 -24 13 -31 12 -14 6 -13 -40 6 -8 3 -13

-3 -13 -16 0 -22 -14 -28 -26 -10 -18 30 -24 -37 -8 -103 4 -20 2 -28 -7 -28

-12 0 -12 -2 0 -9 8 -5 13 -24 13 -42 -3 -77 -3 -79 -19 -70 -9 5 -24 6 -34 4

-18 -5 -25 6 -19 32 1 6 -2 6 -7 2 -4 -5 -8 -23 -9 -40 0 -17 -5 -32 -10 -34

-6 -2 -9 13 -7 34 2 21 0 32 -3 25 -5 -10 -9 -9 -20 5 -12 17 -13 16 -12 -7 2

-47 -2 -60 -17 -60 -9 0 -18 -6 -20 -12 -39 -114 -48 -130 -66 -125 -10 3 -17

1 -13 -4 3 -5 0 -9 -7 -9 -12 0 -4 82 11 111 5 9 6 26 3 37 -6 24 15 84 27 77

4 -3 11 19 15 48 6 41 9 48 15 32 5 -11 9 -32 9 -47 1 -16 5 -28 10 -28 5 0 7

10 3 22 -3 13 -1 19 5 15 7 -5 11 28 12 100 1 58 4 110 8 116 3 5 9 43 13 83

7 65 11 78 43 113 44 48 58 98 59 199 0 43 0 103 0 135 0 46 -4 63 -21 81 -12

12 -21 27 -21 32 0 6 -13 23 -29 38 -23 22 -30 38 -33 81 -3 37 -14 67 -37

103 -37 58 -53 114 -26 92 25 -21 29 -4 4 19 -13 12 -26 21 -29 21 -4 0 -12

11 -18 25 -10 21 -49 53 -112 90 -33 20 -105 70 -119 83 -7 7 -20 11 -27 8 -8

-3 -28 1 -46 9 l-33 15 40 -5 c74 -11 4 19 -137 59 -88 25 -193 28 -260 6z

m654 -1262 c4 -9 10 -54 13 -100 7 -83 -1 -162 -31 -308 -9 -41 -17 -87 -18

-101 -2 -14 -6 -31 -10 -37 -4 -7 -5 -16 -2 -21 3 -5 -4 -11 -16 -14 -12 -4

-19 -9 -15 -13 7 -7 -58 -63 -77 -66 -6 0 -16 -2 -22 -2 -19 -2 -44 -28 -44

-46 0 -20 -33 -53 -43 -43 -4 3 -8 0 -9 -8 -1 -8 -4 11 -7 41 -5 45 -10 56

-31 66 -95 46 -103 48 -107 38 -6 -18 -112 38 -113 59 0 10 7 20 15 23 8 4 12

10 9 15 -3 5 6 14 20 21 35 15 35 41 1 32 -14 -3 -32 -1 -40 6 -8 7 -26 9 -44

5 -24 -5 -39 1 -78 27 -26 19 -56 37 -65 41 -21 7 -23 28 -6 45 8 8 8 15 0 25

-9 10 -7 27 8 68 11 29 19 63 19 74 -1 13 -4 10 -9 -10 -7 -27 -8 -26 -8 15

-1 50 9 82 23 80 5 -1 11 3 13 9 2 6 -3 11 -12 11 -9 0 -16 5 -16 10 0 6 7 10

15 10 8 0 12 6 9 13 -5 15 55 53 66 41 4 -5 13 -26 19 -46 12 -36 31 -60 47

-57 27 5 54 -3 54 -15 0 -13 18 -22 88 -45 42 -14 152 -22 152 -11 0 6 6 10

13 10 15 0 48 36 40 44 -4 3 3 6 15 6 12 0 22 5 22 11 0 5 10 9 23 7 18 -2 22

2 22 25 -1 20 6 30 27 40 15 6 28 15 28 19 0 5 7 8 15 8 8 0 15 5 15 10 0 16

24 7 32 -12z m-1472 -608 c3 -1 8 -2 13 -1 15 2 6 -17 -31 -69 -26 -37 -49

-56 -77 -67 -69 -25 -79 -27 -71 -15 4 7 5 12 2 12 -2 0 -11 3 -20 6 -11 4

-16 1 -16 -10 0 -9 6 -16 13 -16 6 -1 -2 -7 -19 -14 -18 -8 -35 -19 -38 -25

-4 -6 -15 -11 -24 -10 -14 0 -14 2 -2 6 26 11 40 31 40 58 0 15 4 24 10 20 6

-3 10 -1 10 4 0 6 -7 11 -15 11 -8 0 -15 5 -15 11 0 6 7 9 15 5 8 -3 15 -1 15

4 0 18 -27 10 -44 -12 -13 -18 -16 -19 -12 -5 4 13 0 20 -12 24 -10 2 -19 13

-19 24 -2 21 21 22 23 1 3 -25 5 -26 18 -9 16 20 43 14 51 -13 3 -10 12 -21

20 -24 11 -4 15 3 15 29 0 28 4 35 19 35 23 0 40 22 23 28 -7 2 -10 7 -8 10 4

6 122 7 136 2z m967 -147 c3 -7 17 -9 39 -6 23 4 34 2 34 -6 0 -7 14 -17 30

-23 34 -11 34 -34 -1 -69 -16 -16 -24 -44 -20 -71 0 -4 -5 -5 -12 -2 -10 3

-13 -6 -13 -33 1 -30 -3 -38 -19 -41 -11 -3 -23 -9 -26 -14 -4 -7 -15 -6 -29

2 -20 11 -22 10 -17 -4 5 -14 3 -15 -13 -6 -10 5 -28 10 -39 10 -12 0 -21 7

-21 15 0 9 -12 18 -30 22 -36 7 -38 19 -7 45 17 16 32 19 70 15 37 -3 47 -1

43 9 -3 8 0 13 7 11 17 -3 21 40 5 57 -7 8 -22 26 -32 40 -13 18 -28 26 -47

26 -26 0 -39 17 -24 31 10 11 119 3 122 -8z m843 -347 c0 -2 3 -11 6 -20 4

-11 -4 -17 -31 -22 -58 -10 -36 -29 33 -28 34 1 59 -2 56 -7 -2 -5 -24 -6 -48

-3 -27 4 -46 2 -50 -5 -5 -7 4 -11 26 -12 27 0 30 -2 13 -9 -11 -4 -38 -6 -60

-4 -29 4 -36 3 -24 -5 19 -12 78 -15 194 -9 50 3 72 3 50 1 -24 -3 -34 -7 -26

-12 6 -4 -41 -7 -105 -7 -142 1 -148 6 -120 91 18 52 21 55 53 55 18 0 33 -2

33 -4z"/>

<path d="M1570 1913 c1 -10 9 -36 20 -58 11 -22 19 -43 20 -48 0 -4 15 -24 33

-43 17 -20 36 -42 40 -50 11 -19 37 -18 53 4 12 15 15 15 23 2 9 -13 12 -12

25 5 17 23 10 41 -9 25 -11 -9 -18 -7 -32 10 -10 11 -18 24 -18 28 -1 11 -135

142 -146 142 -5 0 -9 -8 -9 -17z"/>

</g>

</svg>

