<?xml version="1.0" standalone="no"?>

<!DOCTYPE svg PUBLIC "-//W3C//DTD SVG 20010904//EN"

 "http://www.w3.org/TR/2001/REC-SVG-20010904/DTD/svg10.dtd">

<svg version="1.0" xmlns="http://www.w3.org/2000/svg"

 width="113.385827" height="169.022350" viewBox="0 0 113.385827 169.022350"

 preserveAspectRatio="xMidYMid meet">

<metadata>

Created by potrace 1.14, written by Peter Selinger 2001-2017

</metadata>

<g transform="translate(60.082978,20.809088) scale(0.0095,-0.0095)"
fill="#000000" stroke="none">

<path d="M0 1200 l0 -1200 805 0 805 0 -1 978 c-1 537 -4 967 -6 955 -2 -13

-11 -23 -19 -23 -8 0 -14 -6 -14 -12 0 -9 -4 -8 -10 2 -9 13 -10 13 -10 0 0

-8 -10 -26 -21 -39 -17 -21 -22 -22 -30 -10 -7 11 -9 11 -9 -3 0 -10 4 -18 8

-18 16 0 0 -58 -17 -62 -29 -7 -122 -1 -132 9 -5 5 -15 32 -21 61 -7 29 -18

52 -25 52 -8 0 -13 12 -13 30 0 17 -4 30 -10 30 -5 0 -10 -9 -10 -21 0 -12 -4

-17 -11 -13 -6 3 -8 18 -5 33 7 27 4 25 -32 -26 -11 -15 -12 -13 -7 22 4 26 2

35 -3 26 -8 -11 -10 -11 -15 0 -4 11 -7 12 -18 2 -19 -19 -29 -16 -29 7 0 25

-11 25 -40 0 l-23 -20 -22 48 c-12 27 -38 66 -56 87 -26 30 -29 35 -10 22 19

-13 28 -14 40 -5 13 10 14 10 4 -2 -20 -22 -15 -35 5 -17 24 22 31 21 53 -4

14 -16 25 -20 46 -14 15 3 25 3 21 -1 -4 -4 0 -13 10 -20 9 -7 19 -9 22 -6 3

4 21 15 40 24 30 15 31 17 7 12 -28 -6 -38 10 -12 20 8 3 15 12 15 20 0 8 8

13 18 12 10 -2 17 -12 17 -24 0 -11 4 -24 9 -29 5 -5 7 -1 3 10 -4 11 -1 17 7

17 8 0 16 -5 18 -11 3 -8 9 -6 20 4 15 15 17 15 23 0 5 -15 7 -15 15 -3 6 8

10 25 10 38 0 12 6 22 14 22 8 0 17 12 19 28 4 24 4 23 6 -8 3 -40 18 -93 20

-69 1 16 27 19 48 6 6 -4 14 1 17 10 6 14 9 15 15 4 6 -10 10 -10 16 -1 4 6

-1 18 -11 26 -11 9 -13 13 -6 9 7 -4 15 2 20 12 10 26 32 27 32 0 0 -18 -2

-19 -11 -7 -9 13 -10 13 -6 0 2 -8 11 -15 19 -14 15 1 18 -22 4 -44 -4 -7 -5

-16 -2 -19 3 -4 6 0 6 8 0 11 2 11 10 -1 6 -10 10 37 10 143 l0 157 -805 0

-805 0 0 -1200z m669 941 c-25 -16 -56 -46 -69 -67 -13 -22 -39 -63 -58 -92

-27 -41 -35 -66 -38 -108 -3 -63 -14 -88 -24 -58 -9 24 -39 25 -62 2 -21 -21

-55 -14 -37 8 23 27 -14 70 -57 65 -7 -1 -14 5 -17 14 -4 9 -13 12 -23 8 -13

-5 -15 -3 -9 8 8 12 6 12 -8 0 -9 -7 -17 -10 -17 -6 0 4 -6 3 -12 -3 -27 -21

-62 -8 -80 28 -10 20 -17 28 -18 18 0 -21 -61 -41 -73 -24 -6 8 -10 7 -14 -1

-8 -21 -36 14 -30 37 3 11 0 20 -6 20 -17 1 35 39 53 41 8 0 2 7 -15 14 -29

14 -29 14 -5 15 20 0 22 2 10 10 -17 11 -13 12 49 14 27 2 47 8 49 15 4 11 6

11 13 0 7 -11 11 -10 23 6 14 19 16 19 46 3 24 -14 32 -15 36 -5 3 8 21 13 47

12 36 -1 44 2 54 24 6 14 12 20 12 14 1 -9 8 -10 27 -3 16 7 23 7 19 0 -4 -6

5 -10 19 -10 18 0 26 -5 26 -17 0 -14 2 -14 21 3 19 17 22 18 33 2 12 -16 14

-16 29 0 11 10 17 12 17 4 0 -18 34 -14 56 6 22 21 41 30 63 31 8 1 -6 -12

-30 -28z m116 -81 l20 -9 -20 -1 c-19 -1 -19 -2 2 -10 22 -9 42 -55 29 -67 -8

-9 24 -43 41 -43 7 0 13 -4 13 -10 0 -5 -7 -10 -16 -10 -9 0 -12 -5 -8 -12 5

-8 -5 -9 -40 -5 -68 10 -87 -12 -84 -98 1 -37 7 -65 13 -65 5 0 -1 -6 -15 -14

-14 -7 -29 -9 -34 -4 -6 4 -15 8 -20 8 -6 0 4 -14 23 -30 33 -30 33 -30 9 -30

-14 0 -35 9 -48 20 -13 11 -26 20 -29 20 -6 0 -25 40 -36 78 -3 12 -3 31 0 43

6 17 9 18 18 6 7 -8 20 -17 29 -20 19 -7 58 23 58 44 0 21 -32 37 -55 28 -37

-14 -45 -10 -43 20 1 16 6 27 10 25 5 -3 7 15 4 41 -3 38 0 48 17 56 14 8 16

13 7 19 -33 20 111 39 155 20z m103 -260 c-7 -17 -16 -30 -20 -30 -5 0 -8 -8

-8 -17 -1 -28 -33 -60 -68 -68 -26 -5 -31 -4 -26 9 3 8 -1 28 -8 44 -20 39 -5

84 24 73 28 -10 78 -1 78 14 0 15 33 26 38 13 2 -4 -2 -22 -10 -38z m-128

-339 c0 -31 127 -62 158 -38 8 7 12 5 12 -6 0 -8 8 -17 18 -19 12 -4 17 -14

16 -40 -1 -19 -4 -40 -8 -47 -4 -7 -5 -18 -2 -26 3 -8 2 -16 -2 -19 -13 -8 -8

-81 6 -79 23 5 12 -6 -47 -47 -68 -45 -94 -49 -203 -25 -144 30 -193 72 -139

117 25 22 59 84 53 101 -1 4 5 10 13 13 8 3 12 10 9 15 -3 5 6 9 20 9 15 0 30

8 36 20 6 11 21 20 35 20 28 0 41 15 20 24 -17 6 -21 36 -5 36 6 0 10 -4 10

-9z m-166 -846 c36 -15 52 -30 19 -18 -16 6 -16 5 -4 -10 16 -20 38 -22 43 -5

4 10 10 10 33 0 26 -12 27 -13 9 -27 -18 -13 -18 -14 6 -23 15 -6 35 -6 48 -1

21 8 62 -3 62 -17 0 -2 -9 0 -19 6 -25 13 -31 13 -31 0 0 -5 7 -10 15 -10 8 0

29 -13 47 -29 32 -29 33 -30 8 -27 -14 2 -36 9 -50 16 -28 15 -120 21 -120 7

0 -4 -4 -6 -9 -3 -5 4 -11 1 -13 -5 -2 -7 -15 -2 -33 13 -47 37 -81 51 -114

46 -16 -2 -30 -2 -29 1 2 19 -4 22 -17 11 -24 -20 -19 32 6 64 16 21 29 26 64

26 23 0 59 -7 79 -15z"/>

</g>

</svg>

